<?xml version="1.0" encoding="UTF-8" standalone="no"?>
<svg
   xmlns:dc="http://purl.org/dc/elements/1.1/"
   xmlns:cc="http://creativecommons.org/ns#"
   xmlns:rdf="http://www.w3.org/1999/02/22-rdf-syntax-ns#"
   xmlns:svg="http://www.w3.org/2000/svg"
   xmlns="http://www.w3.org/2000/svg"
   xmlns:sodipodi="http://sodipodi.sourceforge.net/DTD/sodipodi-0.dtd"
   xmlns:inkscape="http://www.inkscape.org/namespaces/inkscape"
   width="1024"
   height="128"
   version="1.1"
   id="svg3755"
   sodipodi:docname="compassV2-path.svg"
   inkscape:version="0.92.4 (5da689c313, 2019-01-14)">
  <metadata
     id="metadata3761">
    <rdf:RDF>
      <cc:Work
         rdf:about="">
        <dc:format>image/svg+xml</dc:format>
        <dc:type
           rdf:resource="http://purl.org/dc/dcmitype/StillImage" />
        <dc:title></dc:title>
      </cc:Work>
    </rdf:RDF>
  </metadata>
  <defs
     id="defs3759" />
  <sodipodi:namedview
     pagecolor="#ffffff"
     bordercolor="#666666"
     borderopacity="1"
     objecttolerance="10"
     gridtolerance="10"
     guidetolerance="10"
     inkscape:pageopacity="0"
     inkscape:pageshadow="2"
     inkscape:window-width="1920"
     inkscape:window-height="1017"
     id="namedview3757"
     showgrid="false"
     inkscape:zoom="1.7236328"
     inkscape:cx="570.54442"
     inkscape:cy="64"
     inkscape:window-x="1912"
     inkscape:window-y="-8"
     inkscape:window-maximized="1"
     inkscape:current-layer="g3753" />
  <!-- Created with Method Draw - http://github.com/duopixel/Method-Draw/ -->
  <g
     id="g3744">
    <title
       id="title3738">background</title>
    <rect
       fill="none"
       id="canvas_background"
       height="130"
       width="1026"
       y="-1"
       x="-1" />
    <g
       display="none"
       overflow="visible"
       y="0"
       x="0"
       height="100%"
       width="100%"
       id="canvasGrid">
      <rect
         fill="url(#gridpattern)"
         stroke-width="0"
         y="0"
         x="0"
         height="100%"
         width="100%"
         id="rect3741" />
    </g>
  </g>
  <g
     id="g3753">
    <title
       id="title3746">Layer 1</title>
    <g
       aria-label="200 220 240 260 280 300 320 340  0  20  40  60  80  100 120 140 160 180"
       transform="matrix(0.8303334451991674,0,0,0.8303334451991674,0.8354426717479969,14.93805493232127) "
       style="font-style:normal;font-variant:normal;font-weight:bold;font-stretch:normal;font-size:28px;font-family:'Courier New';-inkscape-font-specification:'Courier New Bold';text-anchor:start;fill:#000000;stroke:#000000;stroke-width:0"
       id="svg_1" />
    <g
       aria-label="N"
       style="font-style:normal;font-weight:bold;font-size:47px;font-family:'Courier New', Courier, monospace;text-anchor:start;fill:#000000;stroke:#000000;stroke-width:0"
       id="svg_4" />
    <g
       aria-label="W"
       style="font-style:normal;font-weight:bold;font-size:47px;font-family:'Courier New', Courier, monospace;text-anchor:start;fill:#000000;stroke:#000000;stroke-width:0"
       id="svg_5" />
    <g
       aria-label="E"
       style="font-style:normal;font-weight:bold;font-size:47px;font-family:'Courier New', Courier, monospace;text-anchor:start;fill:#000000;stroke:#000000;stroke-width:0"
       id="svg_6" />
    <g
       aria-label="S"
       style="font-style:normal;font-weight:bold;font-size:47px;font-family:'Courier New', Courier, monospace;text-anchor:start;fill:#000000;stroke:#000000;stroke-width:0"
       id="svg_9">
      <path
         id="path3970"
         style="font-style:normal;font-weight:bold;font-size:47px;font-family:'Courier New', Courier, monospace;text-anchor:start;fill:#000000;stroke:#000000;stroke-width:0"
         d="m 972.229,64.525391 q -0.61963,0.734375 -1.00976,0.940918 -0.36719,0.206543 -0.91797,0.206543 -1.07861,0 -1.74414,-0.711426 -0.64258,-0.734375 -0.64258,-2.409668 v -3.166992 q 0,-1.698243 0.64258,-2.409668 0.66553,-0.734375 1.74414,-0.734375 0.82617,0 1.37695,0.436035 0.57373,0.436035 0.87207,1.46875 0.29834,1.009765 0.61963,1.376953 0.66553,0.711426 2.36377,1.445801 1.69824,0.734375 3.71777,0.734375 3.14405,0 5.16358,-1.46875 1.28516,-0.89502 1.28516,-2.203125 0,-0.872071 -0.61963,-1.629395 -0.61963,-0.780273 -2.01953,-1.285156 -0.91797,-0.344238 -4.10792,-0.940918 -3.85546,-0.711426 -5.8291,-1.721191 -1.97363,-1.009766 -3.12109,-2.845704 -1.14746,-1.835937 -1.14746,-3.970214 0,-3.373536 2.82275,-5.89795 2.82276,-2.547363 7.34375,-2.547363 1.81299,0 3.35059,0.413086 1.56055,0.390137 2.82275,1.216309 0.91797,-0.89502 1.83594,-0.89502 1.03271,0 1.67529,0.734375 0.66553,0.711426 0.66553,2.386719 v 3.53418 q 0,1.698242 -0.66553,2.432617 -0.64258,0.711425 -1.67529,0.711425 -0.87207,0 -1.51465,-0.527832 -0.50488,-0.390136 -0.75732,-1.560546 -0.25244,-1.170411 -0.64258,-1.675293 -0.66553,-0.872071 -1.99658,-1.46875 -1.33106,-0.59668 -3.0752,-0.59668 -2.54736,0 -4.03906,1.193359 -1.46875,1.17041 -1.46875,2.455567 0,0.87207 0.59668,1.698242 0.61963,0.803223 1.79004,1.262207 0.78027,0.321289 4.3833,1.032715 3.62598,0.711426 5.55371,1.560547 1.95068,0.849121 3.23584,2.662109 1.28516,1.812988 1.28516,4.314453 0,3.488281 -2.45557,5.57666 -3.25879,2.753907 -8.30762,2.753907 -1.95068,0 -3.80957,-0.481934 -1.83594,-0.458984 -3.58008,-1.399902 z M 715.27148,54.106445 v 6.907715 h 12.00245 v -2.547363 q 0,-1.698242 0.64257,-2.409668 0.66553,-0.734375 1.7212,-0.734375 1.03271,0 1.67529,0.734375 0.66553,0.711426 0.66553,2.409668 v 7.251953 h -22.146 q -1.69824,0 -2.43262,-0.642578 -0.71142,-0.665527 -0.71142,-1.721192 0,-1.032714 0.73437,-1.675293 0.73438,-0.665527 2.40967,-0.665527 h 0.73437 V 42.608887 h -0.73437 q -1.69824,0 -2.43262,-0.642578 -0.71142,-0.665528 -0.71142,-1.721192 0,-1.055664 0.71142,-1.698242 0.73438,-0.665527 2.43262,-0.665527 l 21.11328,0.02295 v 7.160156 q 0,1.675293 -0.64258,2.409668 -0.64258,0.711426 -1.69824,0.711426 -1.05566,0 -1.72119,-0.711426 -0.64258,-0.711426 -0.64258,-2.409668 v -2.455566 h -10.96973 v 6.792968 h 4.13086 q 0,-1.835937 0.34424,-2.363769 0.71143,-1.124512 2.01953,-1.124512 1.03272,0 1.6753,0.734375 0.66552,0.711426 0.66552,2.409668 v 5.416016 q 0,1.537597 -0.36718,2.065429 -0.73438,1.078614 -1.97364,1.078614 -1.3081,0 -2.01953,-1.124512 -0.34424,-0.527832 -0.34424,-2.386719 z m -489.15771,-1.74414 -4.36035,13.356445 h -5.27832 l -2.79981,-23.109863 q -1.07861,-0.137696 -1.62939,-0.734375 -0.55078,-0.619629 -0.55078,-1.560547 0,-1.101563 0.71142,-1.76709 0.73438,-0.665527 2.43262,-0.665527 l 6.26514,0.02295 q 1.69824,0 2.40966,0.642578 0.73438,0.642578 0.73438,1.698242 0,1.055664 -0.73438,1.721192 -0.71142,0.642578 -2.40966,0.642578 h -2.45557 l 1.56055,13.149902 3.69482,-10.946777 h 4.88819 l 3.67187,10.946777 1.56055,-13.149902 h -2.45557 q -1.69824,0 -2.43262,-0.642578 -0.71142,-0.665528 -0.71142,-1.721192 0,-1.055664 0.71142,-1.698242 0.73438,-0.665527 2.43262,-0.665527 l 6.24219,0.02295 q 1.69824,0 2.40967,0.642578 0.73437,0.642578 0.73437,1.698242 0,0.89502 -0.57373,1.537598 -0.57373,0.642578 -1.65234,0.826172 l -2.70801,23.109863 h -5.18652 z m 245.10205,-5.57666 V 61.01416 h 1.69824 q 1.69824,0 2.40967,0.665527 0.73438,0.642579 0.73438,1.698243 0,1.032715 -0.73438,1.698242 -0.71143,0.642578 -2.40967,0.642578 h -6.17334 q -1.69824,0 -2.43261,-0.642578 -0.71143,-0.665527 -0.71143,-1.721192 0,-1.009765 0.71143,-1.675293 0.71142,-0.665527 2.20312,-0.665527 V 42.608887 h -0.73437 q -1.69825,0 -2.43262,-0.642578 -0.71143,-0.665528 -0.71143,-1.721192 0,-1.055664 0.71143,-1.698242 0.73437,-0.665527 2.43262,-0.665527 l 5.43896,0.02295 12.02539,18.864258 V 42.608887 h -1.69824 q -1.69824,0 -2.43262,-0.642578 -0.71142,-0.665528 -0.71142,-1.721192 0,-1.055664 0.71142,-1.698242 0.73438,-0.665527 2.43262,-0.665527 l 6.17334,0.02295 q 1.69824,0 2.40967,0.642578 0.73437,0.642578 0.73437,1.698242 0,1.032715 -0.71142,1.698242 -0.71143,0.665528 -2.18018,0.665528 V 65.71875 h -4.65869 z m 526.60996,39.808827 v 2.554248 q 0,2.270444 -1.31691,4.347899 -1.30545,2.077455 -3.74622,2.077455 -1.40766,0 -2.38397,-0.613019 -0.96493,-0.624373 -1.83902,-2.281796 -0.8628,-1.668776 -0.8628,-3.530539 v -2.554248 q 0,-2.259091 1.30553,-4.336547 1.30554,-2.088807 3.74622,-2.088807 1.39637,0 2.3613,0.61302 0.97623,0.613019 1.8504,2.281795 0.88547,1.657423 0.88547,3.530539 z m -2.33855,0 q 0,-1.89582 -1.05577,-3.314847 -0.60166,-0.783303 -1.69147,-0.783303 -1.05577,0 -1.72552,0.862768 -1.01035,1.305505 -1.01035,3.235382 v 2.554248 q 0,1.907173 1.06706,3.314847 0.59037,0.783302 1.69147,0.783302 1.0444,0 1.71423,-0.862768 1.01035,-1.305505 1.01035,-3.235381 z m -13.38431,1.203334 q 0.89684,0.692486 1.33957,1.577958 0.45411,0.874121 0.45411,1.929877 0,1.169278 -0.57899,2.156921 -0.56762,0.97629 -1.7936,1.543901 -1.22607,0.567611 -2.72458,0.567611 -1.4985,0 -2.70182,-0.567611 -1.20332,-0.567611 -1.78231,-1.555254 -0.56761,-0.987642 -0.56761,-2.145568 0,-1.055756 0.44273,-1.929877 0.45411,-0.885472 1.35095,-1.577958 -0.78333,-0.726542 -1.18065,-1.543901 -0.39731,-0.81736 -0.39731,-1.725537 0,-1.782297 1.36224,-3.065098 1.36233,-1.294152 3.49654,-1.294152 2.1342,0 3.49645,1.294152 1.36224,1.282801 1.36224,3.065098 0,0.91953 -0.39731,1.736889 -0.38594,0.81736 -1.18065,1.532549 z m -0.80601,-3.224028 q 0,-0.862769 -0.68112,-1.464436 -0.66975,-0.61302 -1.81636,-0.61302 -1.1579,0 -1.83902,0.61302 -0.66983,0.601667 -0.66983,1.464436 0,0.87412 0.66983,1.48714 0.68112,0.601667 1.83902,0.601667 1.14661,0 1.81636,-0.601667 0.68112,-0.61302 0.68112,-1.48714 z m 0.27252,6.845386 q 0,-0.91953 -0.79472,-1.657424 -0.78325,-0.749247 -1.95252,-0.749247 -1.16928,0 -1.96399,0.749247 -0.78326,0.737894 -0.78326,1.680127 0,0.726542 0.68113,1.271448 0.68112,0.533554 2.06612,0.533554 1.39628,0 2.06603,-0.533554 0.68121,-0.544906 0.68121,-1.294151 z M 966.05091,80.169118 v 12.737185 h 2.34993 q 0.84004,0 1.19194,0.329215 0.36327,0.317862 0.36327,0.840063 0,0.51085 -0.36327,0.840064 -0.3519,0.317863 -1.19194,0.317863 h -7.02703 q -0.84005,0 -1.20332,-0.317863 -0.35198,-0.329214 -0.35198,-0.851416 0,-0.510849 0.35198,-0.828711 0.36327,-0.329215 1.20332,-0.329215 h 2.34992 v -9.706144 l -2.07749,0.544907 q -0.49945,0.136227 -0.74921,0.136227 -0.44273,0 -0.77196,-0.35192 -0.31785,-0.351918 -0.31785,-0.862768 0,-0.465441 0.23839,-0.726541 0.23838,-0.272454 0.99897,-0.476794 z m -23.98725,6.425354 v 2.554248 q 0,2.270444 -1.31683,4.347899 -1.30553,2.077455 -3.74622,2.077455 -1.40766,0 -2.38397,-0.613019 -0.96493,-0.624373 -1.8391,-2.281796 -0.86272,-1.668776 -0.86272,-3.530539 v -2.554248 q 0,-2.259091 1.30545,-4.336547 1.30554,-2.088807 3.7463,-2.088807 1.39629,0 2.36122,0.61302 0.97631,0.613019 1.8504,2.281795 0.88547,1.657423 0.88547,3.530539 z m -2.33856,0 q 0,-1.89582 -1.05576,-3.314847 -0.60166,-0.783303 -1.69148,-0.783303 -1.05577,0 -1.72551,0.862768 -1.01035,1.305505 -1.01035,3.235382 v 2.554248 q 0,1.907173 1.06714,3.314847 0.59029,0.783302 1.69147,0.783302 1.0444,0 1.71415,-0.862768 1.01034,-1.305505 1.01034,-3.235381 z m -18.86733,0.692485 q 0.84005,-0.703837 1.60063,-1.0217 0.76059,-0.329214 1.62339,-0.329214 1.82773,0 3.20135,1.453084 1.37354,1.453083 1.37354,3.644061 0,2.032046 -1.28279,3.292143 -1.2714,1.248743 -3.4624,1.248743 -1.82773,0 -3.0083,-0.851416 -1.18065,-0.851416 -1.78231,-2.622362 -0.60166,-1.770945 -0.60166,-3.95057 0,-2.611011 1.19194,-4.336547 1.19203,-1.736889 2.80404,-2.690475 1.61201,-0.953586 3.40561,-0.953586 1.41904,0 2.20238,0.556258 0.51082,0.374623 0.51082,0.953587 0,0.510849 -0.3406,0.862768 -0.34052,0.340567 -0.8173,0.340567 -0.27252,0 -0.78334,-0.272453 -0.30647,-0.158932 -0.59028,-0.158932 -1.11257,0 -2.30451,0.635724 -1.19203,0.624372 -2.06612,1.929877 -0.60166,0.908177 -0.87409,2.270443 z m 0.34052,3.598652 q 0.36327,1.362265 0.97631,1.861763 0.62441,0.499497 1.77093,0.499497 1.14661,0 1.75964,-0.601667 0.62433,-0.601667 0.62433,-1.634719 0,-1.18063 -0.71516,-1.963933 -0.70388,-0.783303 -1.58935,-0.783303 -0.70379,0 -1.50979,0.692486 -0.79471,0.692485 -1.31691,1.929876 z M 910.28887,80.169118 v 12.737185 h 2.34984 q 0.84014,0 1.19203,0.329215 0.36327,0.317862 0.36327,0.840063 0,0.51085 -0.36327,0.840064 -0.35189,0.317863 -1.19203,0.317863 h -7.02702 q -0.84005,0 -1.20332,-0.317863 -0.3519,-0.329214 -0.3519,-0.851416 0,-0.510849 0.3519,-0.828711 0.36327,-0.329215 1.20332,-0.329215 h 2.34992 v -9.706144 l -2.07741,0.544907 q -0.49953,0.136227 -0.74929,0.136227 -0.44274,0 -0.77196,-0.35192 -0.31785,-0.351918 -0.31785,-0.862768 0,-0.465441 0.23838,-0.726541 0.23839,-0.272454 0.99906,-0.476794 z m -23.98725,6.425354 v 2.554248 q 0,2.270444 -1.31691,4.347899 -1.30545,2.077455 -3.74622,2.077455 -1.40766,0 -2.38397,-0.613019 -0.96493,-0.624373 -1.83902,-2.281796 -0.8628,-1.668776 -0.8628,-3.530539 v -2.554248 q 0,-2.259091 1.30553,-4.336547 1.30554,-2.088807 3.74622,-2.088807 1.39637,0 2.3613,0.61302 0.97622,0.613019 1.8504,2.281795 0.88547,1.657423 0.88547,3.530539 z m -2.33855,0 q 0,-1.89582 -1.05577,-3.314847 -0.60166,-0.783303 -1.69148,-0.783303 -1.05576,0 -1.72551,0.862768 -1.01035,1.305505 -1.01035,3.235382 v 2.554248 q 0,1.907173 1.06706,3.314847 0.59037,0.783302 1.69147,0.783302 1.0444,0 1.71423,-0.862768 1.01035,-1.305505 1.01035,-3.235381 z m -13.27073,-6.050731 v 9.104477 q 0.73784,0 1.08982,0.329213 0.35189,0.317863 0.35189,0.828712 0,0.51085 -0.36327,0.840064 -0.35189,0.329214 -1.07844,0.329214 v 0.930882 q 0.73784,0 1.08982,0.329215 0.35189,0.329214 0.35189,0.840063 0,0.51085 -0.36327,0.840064 -0.35189,0.317863 -1.19202,0.317863 h -3.12181 q -0.84005,0 -1.20332,-0.317863 -0.35198,-0.329214 -0.35198,-0.851416 0,-0.510849 0.35198,-0.828711 0.36327,-0.329215 1.20332,-0.329215 h 0.90814 v -0.930882 h -6.32316 v -1.941228 l 5.57395,-9.490452 z m -2.32725,9.104477 v -5.721517 l -3.37157,5.721517 z m -13.83834,-9.4791 v 12.737185 h 2.34993 q 0.84004,0 1.19194,0.329215 0.36327,0.317862 0.36327,0.840063 0,0.51085 -0.36327,0.840064 -0.3519,0.317863 -1.19194,0.317863 h -7.02703 q -0.84005,0 -1.20332,-0.317863 -0.35198,-0.329214 -0.35198,-0.851416 0,-0.510849 0.35198,-0.828711 0.36327,-0.329215 1.20332,-0.329215 h 2.34992 v -9.706144 l -2.07749,0.544907 q -0.49945,0.136227 -0.74921,0.136227 -0.44273,0 -0.77196,-0.35192 -0.31785,-0.351918 -0.31785,-0.862768 0,-0.465441 0.23839,-0.726541 0.23838,-0.272454 0.99897,-0.476794 z m -23.98723,6.425354 v 2.554248 q 0,2.270444 -1.31685,4.347899 -1.30551,2.077455 -3.74623,2.077455 -1.40768,0 -2.38397,-0.613019 -0.96494,-0.624373 -1.83906,-2.281796 -0.86277,-1.668776 -0.86277,-3.530539 v -2.554248 q 0,-2.259091 1.30551,-4.336547 1.3055,-2.088807 3.74623,-2.088807 1.39632,0 2.36126,0.61302 0.97629,0.613019 1.85041,2.281795 0.88547,1.657423 0.88547,3.530539 z m -2.33855,0 q 0,-1.89582 -1.05576,-3.314847 -0.60167,-0.783303 -1.69148,-0.783303 -1.05575,0 -1.72553,0.862768 -1.01035,1.305505 -1.01035,3.235382 v 2.554248 q 0,1.907173 1.06711,3.314847 0.59031,0.783302 1.69148,0.783302 1.0444,0 1.71418,-0.862768 1.01035,-1.305505 1.01035,-3.235381 z m -18.85603,6.311831 h 5.09714 q 0.42003,-0.340566 0.79466,-0.340566 0.53355,0 0.84006,0.351918 0.31787,0.351919 0.31787,1.203335 v 1.112518 H 805.7917 v -2.463431 q 6.28912,-5.187962 7.59463,-6.675103 0.65843,-0.760598 0.65843,-1.441731 0,-0.851417 -0.74926,-1.498492 -0.73789,-0.658429 -1.97528,-0.658429 -1.24874,0 -2.07745,0.726542 -0.43139,0.385976 -0.69249,1.146573 -0.15893,0.476794 -0.44273,0.681134 -0.27246,0.204339 -0.68113,0.204339 -0.4768,0 -0.82872,-0.340566 -0.34057,-0.340566 -0.34057,-0.794655 0,-0.681133 0.62438,-1.702832 0.63572,-1.0217 1.83906,-1.634719 1.21468,-0.61302 2.63371,-0.61302 2.20233,0 3.61,1.339562 1.40768,1.328208 1.40768,3.224028 0,0.964939 -0.40868,1.79365 -0.39733,0.81736 -1.92988,2.270443 -1.20333,1.146574 -4.68846,4.109502 z M 798.76467,80.169118 v 12.737185 h 2.34991 q 0.84006,0 1.19198,0.329215 0.36327,0.317862 0.36327,0.840063 0,0.51085 -0.36327,0.840064 -0.35192,0.317863 -1.19198,0.317863 h -7.02702 q -0.84007,0 -1.20334,-0.317863 -0.35191,-0.329214 -0.35191,-0.851416 0,-0.510849 0.35191,-0.828711 0.36327,-0.329215 1.20334,-0.329215 h 2.34991 v -9.706144 l -2.07745,0.544907 q -0.49951,0.136227 -0.74926,0.136227 -0.44273,0 -0.77194,-0.35192 -0.31787,-0.351918 -0.31787,-0.862768 0,-0.465441 0.2384,-0.726541 0.2384,-0.272454 0.999,-0.476794 z m -23.98723,6.425354 v 2.554248 q 0,2.270444 -1.31685,4.347899 -1.30551,2.077455 -3.74623,2.077455 -1.40768,0 -2.38397,-0.613019 -0.96494,-0.624373 -1.83906,-2.281796 -0.86277,-1.668776 -0.86277,-3.530539 v -2.554248 q 0,-2.259091 1.3055,-4.336547 1.30551,-2.088807 3.74624,-2.088807 1.39632,0 2.36126,0.61302 0.97629,0.613019 1.85041,2.281795 0.88547,1.657423 0.88547,3.530539 z m -2.33855,0 q 0,-1.89582 -1.05576,-3.314847 -0.60167,-0.783303 -1.69148,-0.783303 -1.05576,0 -1.72554,0.862768 -1.01035,1.305505 -1.01035,3.235382 v 2.554248 q 0,1.907173 1.06712,3.314847 0.59031,0.783302 1.69148,0.783302 1.0444,0 1.71418,-0.862768 1.01035,-1.305505 1.01035,-3.235381 z m -11.60197,0 v 2.554248 q 0,2.270444 -1.31686,4.347899 -1.3055,2.077455 -3.74623,2.077455 -1.40767,0 -2.38396,-0.613019 -0.96494,-0.624373 -1.83906,-2.281796 -0.86277,-1.668776 -0.86277,-3.530539 v -2.554248 q 0,-2.259091 1.30551,-4.336547 1.3055,-2.088807 3.74623,-2.088807 1.39632,0 2.36126,0.61302 0.97629,0.613019 1.85041,2.281795 0.88547,1.657423 0.88547,3.530539 z m -2.33856,0 q 0,-1.89582 -1.05575,-3.314847 -0.60167,-0.783303 -1.69148,-0.783303 -1.05575,0 -1.72553,0.862768 -1.01035,1.305505 -1.01035,3.235382 v 2.554248 q 0,1.907173 1.0671,3.314847 0.59032,0.783302 1.69148,0.783302 1.04441,0 1.71419,-0.862768 1.01034,-1.305505 1.01034,-3.235381 z m -15.49577,-6.425354 v 12.737185 h 2.34991 q 0.84006,0 1.19198,0.329215 0.36327,0.317862 0.36327,0.840063 0,0.51085 -0.36327,0.840064 -0.35192,0.317863 -1.19198,0.317863 h -7.02702 q -0.84007,0 -1.20334,-0.317863 -0.35191,-0.329214 -0.35191,-0.851416 0,-0.510849 0.35191,-0.828711 0.36327,-0.329215 1.20334,-0.329215 h 2.34991 v -9.706144 l -2.07746,0.544907 q -0.4995,0.136227 -0.74925,0.136227 -0.44273,0 -0.77194,-0.35192 -0.31787,-0.351918 -0.31787,-0.862768 0,-0.465441 0.2384,-0.726541 0.23839,-0.272454 0.999,-0.476794 z m -37.92775,6.425354 v 2.554248 q 0,2.270444 -1.31686,4.347899 -1.3055,2.077455 -3.74623,2.077455 -1.40767,0 -2.38396,-0.613019 -0.96494,-0.624373 -1.83906,-2.281796 -0.86277,-1.668776 -0.86277,-3.530539 v -2.554248 q 0,-2.259091 1.30551,-4.336547 1.3055,-2.088807 3.74623,-2.088807 1.39632,0 2.36126,0.61302 0.97629,0.613019 1.85041,2.281795 0.88547,1.657423 0.88547,3.530539 z m -2.33856,0 q 0,-1.89582 -1.05575,-3.314847 -0.60167,-0.783303 -1.69148,-0.783303 -1.05575,0 -1.72553,0.862768 -1.01035,1.305505 -1.01035,3.235382 v 2.554248 q 0,1.907173 1.0671,3.314847 0.59032,0.783302 1.69148,0.783302 1.04441,0 1.71419,-0.862768 1.01034,-1.305505 1.01034,-3.235381 z m -13.38426,1.203334 q 0.89683,0.692486 1.33956,1.577958 0.45409,0.874121 0.45409,1.929877 0,1.169278 -0.57896,2.156921 -0.56761,0.97629 -1.79365,1.543901 -1.22603,0.567611 -2.72453,0.567611 -1.49849,0 -2.70183,-0.567611 -1.20334,-0.567611 -1.78229,-1.555254 -0.56762,-0.987642 -0.56762,-2.145568 0,-1.055756 0.44274,-1.929877 0.45409,-0.885472 1.35091,-1.577958 -0.7833,-0.726542 -1.18063,-1.543901 -0.39732,-0.81736 -0.39732,-1.725537 0,-1.782297 1.36226,-3.065098 1.36227,-1.294152 3.49648,-1.294152 2.13422,0 3.49649,1.294152 1.36226,1.282801 1.36226,3.065098 0,0.91953 -0.39732,1.736889 -0.38599,0.81736 -1.18064,1.532549 z m -0.806,-3.224028 q 0,-0.862769 -0.68113,-1.464436 -0.66979,-0.61302 -1.81636,-0.61302 -1.15792,0 -1.83906,0.61302 -0.66978,0.601667 -0.66978,1.464436 0,0.87412 0.66978,1.48714 0.68114,0.601667 1.83906,0.601667 1.14657,0 1.81636,-0.601667 0.68113,-0.61302 0.68113,-1.48714 z m 0.27245,6.845386 q 0,-0.91953 -0.79466,-1.657424 -0.7833,-0.749247 -1.95258,-0.749247 -1.16927,0 -1.96393,0.749247 -0.7833,0.737894 -0.7833,1.680127 0,0.726542 0.68113,1.271448 0.68113,0.533554 2.0661,0.533554 1.39632,0 2.0661,-0.533554 0.68114,-0.544906 0.68114,-1.294151 z m -39.50571,-4.824692 v 2.554248 q 0,2.270444 -1.31686,4.347899 -1.3055,2.077455 -3.74623,2.077455 -1.40767,0 -2.38396,-0.613019 -0.96494,-0.624373 -1.83906,-2.281796 -0.86277,-1.668776 -0.86277,-3.530539 v -2.554248 q 0,-2.259091 1.30551,-4.336547 1.3055,-2.088807 3.74623,-2.088807 1.39632,0 2.36126,0.61302 0.97629,0.613019 1.8504,2.281795 0.88548,1.657423 0.88548,3.530539 z m -2.33856,0 q 0,-1.89582 -1.05575,-3.314847 -0.60167,-0.783303 -1.69148,-0.783303 -1.05575,0 -1.72553,0.862768 -1.01035,1.305505 -1.01035,3.235382 v 2.554248 q 0,1.907173 1.0671,3.314847 0.59032,0.783302 1.69148,0.783302 1.04441,0 1.71419,-0.862768 1.01034,-1.305505 1.01034,-3.235381 z m -18.86737,0.692485 q 0.84006,-0.703837 1.60065,-1.0217 0.76061,-0.329214 1.62337,-0.329214 1.82771,0 3.20133,1.453084 1.37362,1.453083 1.37362,3.644061 0,2.032046 -1.28281,3.292143 -1.27145,1.248743 -3.46242,1.248743 -1.82771,0 -3.00833,-0.851416 -1.18064,-0.851416 -1.78231,-2.622362 -0.60166,-1.770945 -0.60166,-3.95057 0,-2.611011 1.19198,-4.336547 1.19199,-1.736889 2.804,-2.690475 1.61201,-0.953586 3.40566,-0.953586 1.41903,0 2.20233,0.556258 0.51085,0.374623 0.51085,0.953587 0,0.510849 -0.34056,0.862768 -0.34057,0.340567 -0.81737,0.340567 -0.27245,0 -0.7833,-0.272453 -0.30651,-0.158932 -0.59032,-0.158932 -1.11251,0 -2.3045,0.635724 -1.19197,0.624372 -2.0661,1.929877 -0.60167,0.908177 -0.87411,2.270443 z m 0.34056,3.598652 q 0.36327,1.362265 0.97629,1.861763 0.62437,0.499497 1.77095,0.499497 1.14657,0 1.75959,-0.601667 0.62437,-0.601667 0.62437,-1.634719 0,-1.18063 -0.71519,-1.963933 -0.70383,-0.783303 -1.58931,-0.783303 -0.70384,0 -1.50984,0.692486 -0.79466,0.692485 -1.31686,1.929876 z m -34.89671,-4.291137 v 2.554248 q 0,2.270444 -1.31686,4.347899 -1.3055,2.077455 -3.74623,2.077455 -1.40767,0 -2.38396,-0.613019 -0.96494,-0.624373 -1.83906,-2.281796 -0.86277,-1.668776 -0.86277,-3.530539 v -2.554248 q 0,-2.259091 1.30551,-4.336547 1.3055,-2.088807 3.74623,-2.088807 1.39632,0 2.36126,0.61302 0.97629,0.613019 1.8504,2.281795 0.88548,1.657423 0.88548,3.530539 z m -2.33856,0 q 0,-1.89582 -1.05575,-3.314847 -0.60167,-0.783303 -1.69148,-0.783303 -1.05575,0 -1.72553,0.862768 -1.01035,1.305505 -1.01035,3.235382 v 2.554248 q 0,1.907173 1.0671,3.314847 0.59032,0.783302 1.69148,0.783302 1.04441,0 1.71419,-0.862768 1.01034,-1.305505 1.01034,-3.235381 z m -13.27074,-6.050731 v 9.104477 q 0.7379,0 1.08982,0.329213 0.35192,0.317863 0.35192,0.828712 0,0.51085 -0.36328,0.840064 -0.35192,0.329214 -1.07846,0.329214 v 0.930882 q 0.7379,0 1.08982,0.329215 0.35192,0.329214 0.35192,0.840063 0,0.51085 -0.36328,0.840064 -0.35192,0.317863 -1.19198,0.317863 h -3.12185 q -0.84007,0 -1.20334,-0.317863 -0.35192,-0.329214 -0.35192,-0.851416 0,-0.510849 0.35192,-0.828711 0.36327,-0.329215 1.20334,-0.329215 h 0.90817 v -0.930882 h -6.32319 v -1.941228 l 5.57394,-9.490452 z m -2.3272,9.104477 v -5.721517 l -3.37161,5.721517 z M 537.7886,86.594472 v 2.554248 q 0,2.270444 -1.31686,4.347899 -1.3055,2.077455 -3.74623,2.077455 -1.40767,0 -2.38396,-0.613019 -0.96494,-0.624373 -1.83906,-2.281796 -0.86277,-1.668776 -0.86277,-3.530539 v -2.554248 q 0,-2.259091 1.3055,-4.336547 1.30551,-2.088807 3.74624,-2.088807 1.39632,0 2.36126,0.61302 0.97629,0.613019 1.8504,2.281795 0.88548,1.657423 0.88548,3.530539 z m -2.33856,0 q 0,-1.89582 -1.05575,-3.314847 -0.60167,-0.783303 -1.69148,-0.783303 -1.05575,0 -1.72554,0.862768 -1.01034,1.305505 -1.01034,3.235382 v 2.554248 q 0,1.907173 1.0671,3.314847 0.59032,0.783302 1.69148,0.783302 1.04441,0 1.71419,-0.862768 1.01034,-1.305505 1.01034,-3.235381 z m -18.85603,6.311831 h 5.09715 q 0.42003,-0.340566 0.79465,-0.340566 0.53356,0 0.84007,0.351918 0.31786,0.351919 0.31786,1.203335 v 1.112518 h -10.60297 v -2.463431 q 6.28913,-5.187962 7.59464,-6.675103 0.65842,-0.760598 0.65842,-1.441731 0,-0.851417 -0.74925,-1.498492 -0.73789,-0.658429 -1.97528,-0.658429 -1.24874,0 -2.07746,0.726542 -0.43138,0.385976 -0.69248,1.146573 -0.15893,0.476794 -0.44273,0.681134 -0.27246,0.204339 -0.68114,0.204339 -0.4768,0 -0.82871,-0.340566 -0.34057,-0.340566 -0.34057,-0.794655 0,-0.681133 0.62437,-1.702832 0.63573,-1.0217 1.83907,-1.634719 1.21468,-0.61302 2.63371,-0.61302 2.20233,0 3.61,1.339562 1.40768,1.328208 1.40768,3.224028 0,0.964939 -0.40869,1.79365 -0.39732,0.81736 -1.92987,2.270443 -1.20333,1.146574 -4.68847,4.109502 z m -34.56749,-6.311831 v 2.554248 q 0,2.270444 -1.31686,4.347899 -1.3055,2.077455 -3.74623,2.077455 -1.40767,0 -2.38396,-0.613019 -0.96494,-0.624373 -1.83906,-2.281796 -0.86277,-1.668776 -0.86277,-3.530539 v -2.554248 q 0,-2.259091 1.3055,-4.336547 1.30551,-2.088807 3.74624,-2.088807 1.39632,0 2.36126,0.61302 0.97629,0.613019 1.8504,2.281795 0.88548,1.657423 0.88548,3.530539 z m -2.33856,0 q 0,-1.89582 -1.05575,-3.314847 -0.60167,-0.783303 -1.69148,-0.783303 -1.05576,0 -1.72554,0.862768 -1.01035,1.305505 -1.01035,3.235382 v 2.554248 q 0,1.907173 1.06711,3.314847 0.59032,0.783302 1.69148,0.783302 1.04441,0 1.71419,-0.862768 1.01034,-1.305505 1.01034,-3.235381 z m -39.483,0 v 2.554248 q 0,2.270444 -1.31685,4.347899 -1.30551,2.077455 -3.74624,2.077455 -1.40768,0 -2.38397,-0.613019 -0.96493,-0.624373 -1.83905,-2.281796 -0.86277,-1.668776 -0.86277,-3.530539 v -2.554248 q 0,-2.259091 1.3055,-4.336547 1.30551,-2.088807 3.74623,-2.088807 1.39633,0 2.36126,0.61302 0.97629,0.613019 1.85042,2.281795 0.88547,1.657423 0.88547,3.530539 z m -2.33855,0 q 0,-1.89582 -1.05576,-3.314847 -0.60167,-0.783303 -1.69149,-0.783303 -1.05575,0 -1.72553,0.862768 -1.01035,1.305505 -1.01035,3.235382 v 2.554248 q 0,1.907173 1.06711,3.314847 0.59031,0.783302 1.69148,0.783302 1.04441,0 1.71419,-0.862768 1.01035,-1.305505 1.01035,-3.235381 z m -13.27075,-6.050731 v 9.104477 q 0.7379,0 1.08981,0.329213 0.35192,0.317863 0.35192,0.828712 0,0.51085 -0.36327,0.840064 -0.35192,0.329214 -1.07846,0.329214 v 0.930882 q 0.7379,0 1.08981,0.329215 0.35192,0.329214 0.35192,0.840063 0,0.51085 -0.36327,0.840064 -0.35192,0.317863 -1.19198,0.317863 h -3.12186 q -0.84006,0 -1.20333,-0.317863 -0.35192,-0.329214 -0.35192,-0.851416 0,-0.510849 0.35192,-0.828711 0.36327,-0.329215 1.20333,-0.329215 h 0.90818 v -0.930882 h -6.32318 v -1.941228 l 5.57394,-9.490452 z m -2.3272,9.104477 v -5.721517 l -3.37161,5.721517 z M 410.56433,87.45724 q 1.03305,0.703837 1.5439,1.634719 0.51085,0.919529 0.51085,2.066103 0,1.237392 -0.68114,2.293147 -0.66978,1.044405 -1.95258,1.589311 -1.2828,0.533554 -3.36025,0.533554 -2.70183,0 -4.06409,-0.840064 -0.7606,-0.476793 -0.7606,-1.135221 0,-0.499498 0.32921,-0.840064 0.34057,-0.351919 0.81736,-0.351919 0.32921,0 0.68113,0.227044 0.4995,0.340566 0.94224,0.454089 0.68113,0.15893 1.87311,0.15893 2.03205,0 2.94022,-0.522201 0.90818,-0.533554 0.90818,-1.498492 0,-0.71519 -0.53355,-1.373618 -0.5222,-0.669781 -1.40768,-1.033052 -0.51084,-0.20434 -1.72553,-0.283806 -0.57897,-0.03406 -0.89683,-0.351918 -0.30651,-0.329214 -0.30651,-0.806007 0,-0.499498 0.34057,-0.840065 0.34057,-0.340566 0.86277,-0.340566 1.15792,0 1.23739,-0.01135 0.45409,-0.04541 0.90818,-0.295158 0.45409,-0.249749 0.72654,-0.681133 0.2838,-0.442736 0.2838,-0.908177 0,-0.737894 -0.65842,-1.271448 -0.64708,-0.544906 -1.95258,-0.544906 -1.68013,0 -2.56561,0.97629 -0.2611,0.283805 -0.42003,0.363271 -0.2384,0.124874 -0.53355,0.124874 -0.47679,0 -0.81736,-0.340566 -0.34057,-0.340567 -0.34057,-0.840064 0,-0.783303 1.04441,-1.521197 1.52119,-1.078461 3.80298,-1.078461 2.15693,0 3.46244,1.22604 1.3055,1.226039 1.3055,2.951575 0,0.896826 -0.38598,1.680129 -0.38598,0.77195 -1.15792,1.430379 z m -26.12145,-0.862768 v 2.554248 q 0,2.270444 -1.31685,4.347899 -1.30551,2.077455 -3.74624,2.077455 -1.40768,0 -2.38397,-0.613019 -0.96494,-0.624373 -1.83905,-2.281796 Q 374.294,91.010483 374.294,89.14872 v -2.554248 q 0,-2.259091 1.3055,-4.336547 1.30551,-2.088807 3.74623,-2.088807 1.39633,0 2.36126,0.61302 0.97629,0.613019 1.85042,2.281795 0.88547,1.657423 0.88547,3.530539 z m -2.33855,0 q 0,-1.89582 -1.05577,-3.314847 -0.60166,-0.783303 -1.69148,-0.783303 -1.05575,0 -1.72553,0.862768 -1.01035,1.305505 -1.01035,3.235382 v 2.554248 q 0,1.907173 1.06711,3.314847 0.59031,0.783302 1.69148,0.783302 1.04441,0 1.71419,-0.862768 1.01035,-1.305505 1.01035,-3.235381 z m -18.85604,6.311831 h 5.09714 q 0.42004,-0.340566 0.79467,-0.340566 0.53354,0 0.84005,0.351918 0.31787,0.351919 0.31787,1.203335 v 1.112518 h -10.60297 v -2.463431 q 6.28912,-5.187962 7.59463,-6.675103 0.65843,-0.760598 0.65843,-1.441731 0,-0.851417 -0.74925,-1.498492 -0.73789,-0.658429 -1.97528,-0.658429 -1.24875,0 -2.07745,0.726542 -0.43139,0.385976 -0.69249,1.146573 -0.15894,0.476794 -0.44274,0.681134 -0.27245,0.204339 -0.68113,0.204339 -0.47679,0 -0.82871,-0.340566 -0.34057,-0.340566 -0.34057,-0.794655 0,-0.681133 0.62438,-1.702832 0.63572,-1.0217 1.83905,-1.634719 1.21469,-0.61302 2.63371,-0.61302 2.20234,0 3.61001,1.339562 1.40767,1.328208 1.40767,3.224028 0,0.964939 -0.40867,1.79365 -0.39733,0.81736 -1.92988,2.270443 -1.20333,1.146574 -4.68847,4.109502 z m -8.44604,-5.449063 q 1.03305,0.703837 1.54389,1.634719 0.51086,0.919529 0.51086,2.066103 0,1.237392 -0.68114,2.293147 -0.66978,1.044405 -1.95258,1.589311 -1.2828,0.533554 -3.36025,0.533554 -2.70183,0 -4.06409,-0.840064 -0.7606,-0.476793 -0.7606,-1.135221 0,-0.499498 0.32921,-0.840064 0.34057,-0.351919 0.81736,-0.351919 0.32921,0 0.68113,0.227044 0.4995,0.340566 0.94224,0.454089 0.68113,0.15893 1.87311,0.15893 2.03205,0 2.94022,-0.522201 0.90818,-0.533554 0.90818,-1.498492 0,-0.71519 -0.53356,-1.373618 -0.52219,-0.669781 -1.40767,-1.033052 -0.51084,-0.20434 -1.72553,-0.283806 -0.57897,-0.03406 -0.89683,-0.351918 -0.30651,-0.329214 -0.30651,-0.806007 0,-0.499498 0.34057,-0.840065 0.34056,-0.340566 0.86277,-0.340566 1.15792,0 1.23739,-0.01135 0.45409,-0.04541 0.90817,-0.295158 0.4541,-0.249749 0.72655,-0.681133 0.2838,-0.442736 0.2838,-0.908177 0,-0.737894 -0.65843,-1.271448 -0.64707,-0.544906 -1.95257,-0.544906 -1.68013,0 -2.56561,0.97629 -0.2611,0.283805 -0.42003,0.363271 -0.2384,0.124874 -0.53355,0.124874 -0.47679,0 -0.81736,-0.340566 -0.34057,-0.340567 -0.34057,-0.840064 0,-0.783303 1.04441,-1.521197 1.52119,-1.078461 3.80298,-1.078461 2.15693,0 3.46243,1.22604 1.3055,1.226039 1.3055,2.951575 0,0.896826 -0.38597,1.680129 -0.38598,0.77195 -1.15792,1.430379 z M 328.6808,86.594472 v 2.554248 q 0,2.270444 -1.31685,4.347899 -1.30551,2.077455 -3.74624,2.077455 -1.40768,0 -2.38397,-0.613019 -0.96494,-0.624373 -1.83905,-2.281796 -0.86277,-1.668776 -0.86277,-3.530539 v -2.554248 q 0,-2.259091 1.3055,-4.336547 1.30551,-2.088807 3.74623,-2.088807 1.39633,0 2.36126,0.61302 0.97629,0.613019 1.85042,2.281795 0.88547,1.657423 0.88547,3.530539 z m -2.33855,0 q 0,-1.89582 -1.05577,-3.314847 -0.60166,-0.783303 -1.69148,-0.783303 -1.05575,0 -1.72553,0.862768 -1.01035,1.305505 -1.01035,3.235382 v 2.554248 q 0,1.907173 1.06711,3.314847 0.59031,0.783302 1.69148,0.783302 1.04441,0 1.71419,-0.862768 1.01035,-1.305505 1.01035,-3.235381 z m -11.60197,0 v 2.554248 q 0,2.270444 -1.31686,4.347899 -1.3055,2.077455 -3.74623,2.077455 -1.40768,0 -2.38396,-0.613019 -0.96494,-0.624373 -1.83906,-2.281796 -0.86278,-1.668776 -0.86278,-3.530539 v -2.554248 q 0,-2.259091 1.30551,-4.336547 1.30551,-2.088807 3.74624,-2.088807 1.39632,0 2.36126,0.61302 0.97629,0.613019 1.8504,2.281795 0.88548,1.657423 0.88548,3.530539 z m -2.33856,0 q 0,-1.89582 -1.05575,-3.314847 -0.60167,-0.783303 -1.69148,-0.783303 -1.05576,0 -1.72554,0.862768 -1.01035,1.305505 -1.01035,3.235382 v 2.554248 q 0,1.907173 1.06711,3.314847 0.59031,0.783302 1.69148,0.783302 1.04441,0 1.71419,-0.862768 1.01034,-1.305505 1.01034,-3.235381 z m -13.36155,0.862768 q 1.03305,0.703837 1.54389,1.634719 0.51086,0.919529 0.51086,2.066103 0,1.237392 -0.68114,2.293147 -0.66978,1.044405 -1.95258,1.589311 -1.2828,0.533554 -3.36025,0.533554 -2.70183,0 -4.06409,-0.840064 -0.7606,-0.476793 -0.7606,-1.135221 0,-0.499498 0.32921,-0.840064 0.34057,-0.351919 0.81736,-0.351919 0.32921,0 0.68113,0.227044 0.4995,0.340566 0.94224,0.454089 0.68113,0.15893 1.87311,0.15893 2.03205,0 2.94022,-0.522201 0.90818,-0.533554 0.90818,-1.498492 0,-0.71519 -0.53356,-1.373618 -0.52219,-0.669781 -1.40767,-1.033052 -0.51084,-0.20434 -1.72553,-0.283806 -0.57897,-0.03406 -0.89683,-0.351918 -0.30651,-0.329214 -0.30651,-0.806007 0,-0.499498 0.34056,-0.840065 0.34057,-0.340566 0.86278,-0.340566 1.15792,0 1.23739,-0.01135 0.45409,-0.04541 0.90817,-0.295158 0.4541,-0.249749 0.72655,-0.681133 0.2838,-0.442736 0.2838,-0.908177 0,-0.737894 -0.65843,-1.271448 -0.64707,-0.544906 -1.95257,-0.544906 -1.68013,0 -2.56561,0.97629 -0.2611,0.283805 -0.42003,0.363271 -0.2384,0.124874 -0.53355,0.124874 -0.47679,0 -0.81736,-0.340566 -0.34057,-0.340567 -0.34057,-0.840064 0,-0.783303 1.04441,-1.521197 1.52119,-1.078461 3.80298,-1.078461 2.15693,0 3.46243,1.22604 1.3055,1.226039 1.3055,2.951575 0,0.896826 -0.38597,1.680129 -0.38598,0.77195 -1.15792,1.430379 z m -26.12145,-0.862768 v 2.554248 q 0,2.270444 -1.31685,4.347899 -1.30551,2.077455 -3.74624,2.077455 -1.40768,0 -2.38397,-0.613019 -0.96494,-0.624373 -1.83905,-2.281796 -0.86277,-1.668776 -0.86277,-3.530539 v -2.554248 q 0,-2.259091 1.3055,-4.336547 1.30551,-2.088807 3.74623,-2.088807 1.39632,0 2.36126,0.61302 0.97629,0.613019 1.85042,2.281795 0.88547,1.657423 0.88547,3.530539 z m -2.33856,0 q 0,-1.89582 -1.05576,-3.314847 -0.60166,-0.783303 -1.69148,-0.783303 -1.05575,0 -1.72553,0.862768 -1.01035,1.305505 -1.01035,3.235382 v 2.554248 q 0,1.907173 1.06711,3.314847 0.59031,0.783302 1.69148,0.783302 1.0444,0 1.71418,-0.862768 1.01035,-1.305505 1.01035,-3.235381 z m -13.38426,1.203334 q 0.89682,0.692486 1.33956,1.577958 0.45409,0.874121 0.45409,1.929877 0,1.169278 -0.57896,2.156921 -0.56762,0.97629 -1.79365,1.543901 -1.22604,0.567611 -2.72453,0.567611 -1.4985,0 -2.70183,-0.567611 -1.20333,-0.567611 -1.7823,-1.555254 -0.56761,-0.987642 -0.56761,-2.145568 0,-1.055756 0.44274,-1.929877 0.45408,-0.885472 1.35091,-1.577958 -0.78331,-0.726542 -1.18063,-1.543901 -0.39733,-0.81736 -0.39733,-1.725537 0,-1.782297 1.36227,-3.065098 1.36226,-1.294152 3.49648,-1.294152 2.13422,0 3.49648,1.294152 1.36227,1.282801 1.36227,3.065098 0,0.91953 -0.39733,1.736889 -0.38597,0.81736 -1.18063,1.532549 z m -0.80601,-3.224028 q 0,-0.862769 -0.68113,-1.464436 -0.66978,-0.61302 -1.81635,-0.61302 -1.15793,0 -1.83906,0.61302 -0.66978,0.601667 -0.66978,1.464436 0,0.87412 0.66978,1.48714 0.68113,0.601667 1.83906,0.601667 1.14657,0 1.81635,-0.601667 0.68113,-0.61302 0.68113,-1.48714 z m 0.27246,6.845386 q 0,-0.91953 -0.79466,-1.657424 -0.7833,-0.749247 -1.95258,-0.749247 -1.16928,0 -1.96393,0.749247 -0.78331,0.737894 -0.78331,1.680127 0,0.726542 0.68113,1.271448 0.68114,0.533554 2.06611,0.533554 1.39632,0 2.06611,-0.533554 0.68113,-0.544906 0.68113,-1.294151 z m -18.87874,1.487139 h 5.09715 q 0.42003,-0.340566 0.79465,-0.340566 0.53356,0 0.84006,0.351918 0.31786,0.351919 0.31786,1.203335 v 1.112518 h -10.60296 v -2.463431 q 6.28912,-5.187962 7.59463,-6.675103 0.65843,-0.760598 0.65843,-1.441731 0,-0.851417 -0.74925,-1.498492 -0.73789,-0.658429 -1.97528,-0.658429 -1.24875,0 -2.07746,0.726542 -0.43138,0.385976 -0.69248,1.146573 -0.15894,0.476794 -0.44274,0.681134 -0.27245,0.204339 -0.68113,0.204339 -0.4768,0 -0.82871,-0.340566 -0.34057,-0.340566 -0.34057,-0.794655 0,-0.681133 0.62437,-1.702832 0.63573,-1.0217 1.83906,-1.634719 1.21469,-0.61302 2.63371,-0.61302 2.20234,0 3.61001,1.339562 1.40767,1.328208 1.40767,3.224028 0,0.964939 -0.40868,1.79365 -0.39732,0.81736 -1.92988,2.270443 -1.20332,1.146574 -4.68846,4.109502 z m -20.62697,-6.311831 v 2.554248 q 0,2.270444 -1.31686,4.347899 -1.3055,2.077455 -3.74623,2.077455 -1.40768,0 -2.38397,-0.613019 -0.96494,-0.624373 -1.83905,-2.281796 -0.86277,-1.668776 -0.86277,-3.530539 v -2.554248 q 0,-2.259091 1.3055,-4.336547 1.30551,-2.088807 3.74623,-2.088807 1.39632,0 2.36126,0.61302 0.97629,0.613019 1.85042,2.281795 0.88547,1.657423 0.88547,3.530539 z m -2.33856,0 q 0,-1.89582 -1.05576,-3.314847 -0.60166,-0.783303 -1.69148,-0.783303 -1.05575,0 -1.72553,0.862768 -1.01035,1.305505 -1.01035,3.235382 v 2.554248 q 0,1.907173 1.06711,3.314847 0.59031,0.783302 1.69148,0.783302 1.0444,0 1.71418,-0.862768 1.01035,-1.305505 1.01035,-3.235381 z m -18.86738,0.692485 q 0.84006,-0.703837 1.60066,-1.0217 0.7606,-0.329214 1.62337,-0.329214 1.8277,0 3.20132,1.453084 1.37362,1.453083 1.37362,3.644061 0,2.032046 -1.2828,3.292143 -1.27144,1.248743 -3.46243,1.248743 -1.8277,0 -3.00833,-0.851416 -1.18063,-0.851416 -1.7823,-2.622362 -0.60167,-1.770945 -0.60167,-3.95057 0,-2.611011 1.19199,-4.336547 1.19198,-1.736889 2.80399,-2.690475 1.61202,-0.953586 3.40567,-0.953586 1.41902,0 2.20233,0.556258 0.51084,0.374623 0.51084,0.953587 0,0.510849 -0.34056,0.862768 -0.34057,0.340567 -0.81736,0.340567 -0.27245,0 -0.7833,-0.272453 -0.30651,-0.158932 -0.59031,-0.158932 -1.11253,0 -2.3045,0.635724 -1.19199,0.624372 -2.06611,1.929877 -0.60166,0.908177 -0.87412,2.270443 z m 0.34057,3.598652 q 0.36327,1.362265 0.97629,1.861763 0.62437,0.499497 1.77094,0.499497 1.14658,0 1.75959,-0.601667 0.62437,-0.601667 0.62437,-1.634719 0,-1.18063 -0.71518,-1.963933 -0.70384,-0.783303 -1.58931,-0.783303 -0.70384,0 -1.50985,0.692486 -0.79465,0.692485 -1.31685,1.929876 z m -14.26974,2.020694 h 5.09715 q 0.42003,-0.340566 0.79465,-0.340566 0.53355,0 0.84006,0.351918 0.31786,0.351919 0.31786,1.203335 v 1.112518 h -10.60296 v -2.463431 q 6.28912,-5.187962 7.59463,-6.675103 0.65843,-0.760598 0.65843,-1.441731 0,-0.851417 -0.74925,-1.498492 -0.73789,-0.658429 -1.97528,-0.658429 -1.24875,0 -2.07746,0.726542 -0.43138,0.385976 -0.69248,1.146573 -0.15894,0.476794 -0.44274,0.681134 -0.27245,0.204339 -0.68113,0.204339 -0.4768,0 -0.82871,-0.340566 -0.34057,-0.340566 -0.34057,-0.794655 0,-0.681133 0.62437,-1.702832 0.63573,-1.0217 1.83906,-1.634719 1.21469,-0.61302 2.63371,-0.61302 2.20234,0 3.61001,1.339562 1.40767,1.328208 1.40767,3.224028 0,0.964939 -0.40868,1.79365 -0.39732,0.81736 -1.92988,2.270443 -1.20332,1.146574 -4.68846,4.109502 z m -20.62698,-6.311831 v 2.554248 q 0,2.270444 -1.31685,4.347899 -1.3055,2.077455 -3.74623,2.077455 -1.40768,0 -2.38397,-0.613019 -0.96494,-0.624373 -1.83905,-2.281796 -0.86277,-1.668776 -0.86277,-3.530539 v -2.554248 q 0,-2.259091 1.3055,-4.336547 1.30551,-2.088807 3.74623,-2.088807 1.39632,0 2.36126,0.61302 0.97629,0.613019 1.85042,2.281795 0.88546,1.657423 0.88546,3.530539 z m -2.33855,0 q 0,-1.89582 -1.05576,-3.314847 -0.60166,-0.783303 -1.69148,-0.783303 -1.05575,0 -1.72553,0.862768 -1.01035,1.305505 -1.01035,3.235382 v 2.554248 q 0,1.907173 1.06711,3.314847 0.59031,0.783302 1.69148,0.783302 1.0444,0 1.71418,-0.862768 1.01035,-1.305505 1.01035,-3.235381 z m -13.27074,-6.050731 v 9.104477 q 0.7379,0 1.08981,0.329213 0.35192,0.317863 0.35192,0.828712 0,0.51085 -0.36327,0.840064 -0.35192,0.329214 -1.07846,0.329214 v 0.930882 q 0.7379,0 1.08981,0.329215 0.35192,0.329214 0.35192,0.840063 0,0.51085 -0.36327,0.840064 -0.35192,0.317863 -1.19198,0.317863 h -3.12186 q -0.84007,0 -1.20334,-0.317863 -0.35192,-0.329214 -0.35192,-0.851416 0,-0.510849 0.35192,-0.828711 0.36327,-0.329215 1.20334,-0.329215 h 0.90818 v -0.930882 h -6.32318 v -1.941228 l 5.57393,-9.490452 z m -2.3272,9.104477 v -5.721517 l -3.37161,5.721517 z m -17.19861,3.258085 h 5.09714 q 0.42004,-0.340566 0.79466,-0.340566 0.53355,0 0.84006,0.351918 0.31786,0.351919 0.31786,1.203335 v 1.112518 h -10.60296 v -2.463431 q 6.28912,-5.187962 7.59463,-6.675103 0.65843,-0.760598 0.65843,-1.441731 0,-0.851417 -0.74925,-1.498492 -0.73789,-0.658429 -1.97528,-0.658429 -1.24875,0 -2.07746,0.726542 -0.43138,0.385976 -0.69248,1.146573 -0.15894,0.476794 -0.44274,0.681134 -0.27245,0.204339 -0.68114,0.204339 -0.47679,0 -0.8287,-0.340566 -0.34057,-0.340566 -0.34057,-0.794655 0,-0.681133 0.62437,-1.702832 0.63573,-1.0217 1.83906,-1.634719 1.21469,-0.61302 2.63371,-0.61302 2.20234,0 3.61001,1.339562 1.40767,1.328208 1.40767,3.224028 0,0.964939 -0.40868,1.79365 -0.39732,0.81736 -1.92988,2.270443 -1.20332,1.146574 -4.68846,4.109502 z m -20.62698,-6.311831 v 2.554248 q 0,2.270444 -1.31685,4.347899 -1.3055,2.077455 -3.74623,2.077455 -1.407679,0 -2.383969,-0.613019 -0.964938,-0.624373 -1.839055,-2.281796 -0.862767,-1.668776 -0.862767,-3.530539 v -2.554248 q 0,-2.259091 1.3055,-4.336547 1.305509,-2.088807 3.746231,-2.088807 1.39632,0 2.36126,0.61302 0.97629,0.613019 1.85042,2.281795 0.88546,1.657423 0.88546,3.530539 z m -2.33855,0 q 0,-1.89582 -1.05576,-3.314847 -0.60167,-0.783303 -1.69148,-0.783303 -1.05575,0 -1.72553,0.862768 -1.01035,1.305505 -1.01035,3.235382 v 2.554248 q 0,1.907173 1.067111,3.314847 0.590309,0.783302 1.691479,0.783302 1.0444,0 1.71418,-0.862768 1.01035,-1.305505 1.01035,-3.235381 z m -18.856031,6.311831 h 5.097143 q 0.420033,-0.340566 0.794663,-0.340566 0.533547,0 0.840056,0.351918 0.317869,0.351919 0.317869,1.203335 v 1.112518 H 80.884649 v -2.463431 q 6.289123,-5.187962 7.594631,-6.675103 0.65843,-0.760598 0.65843,-1.441731 0,-0.851417 -0.749252,-1.498492 -0.737892,-0.658429 -1.97528,-0.658429 -1.248747,0 -2.077453,0.726542 -0.431391,0.385976 -0.692489,1.146573 -0.158931,0.476794 -0.442736,0.681134 -0.272453,0.204339 -0.681133,0.204339 -0.476793,0 -0.828711,-0.340566 -0.340567,-0.340566 -0.340567,-0.794655 0,-0.681133 0.624372,-1.702832 0.635724,-1.0217 1.839058,-1.634719 1.214688,-0.61302 2.633711,-0.61302 2.202335,0 3.610007,1.339562 1.407673,1.328208 1.407673,3.224028 0,0.964939 -0.408673,1.79365 -0.397332,0.81736 -1.929878,2.270443 -1.203336,1.146574 -4.68847,4.109502 z m -13.940518,0 h 5.097145 q 0.420032,-0.340566 0.794655,-0.340566 0.533554,0 0.840064,0.351918 0.317862,0.351919 0.317862,1.203335 v 1.112518 H 66.944128 v -2.463431 q 6.289127,-5.187962 7.594632,-6.675103 0.658428,-0.760598 0.658428,-1.441731 0,-0.851417 -0.749246,-1.498492 -0.737893,-0.658429 -1.975285,-0.658429 -1.248744,0 -2.077456,0.726542 -0.431384,0.385976 -0.692484,1.146573 -0.158932,0.476794 -0.442737,0.681134 -0.272453,0.204339 -0.681133,0.204339 -0.476793,0 -0.828712,-0.340566 -0.340566,-0.340566 -0.340566,-0.794655 0,-0.681133 0.624372,-1.702832 0.635724,-1.0217 1.839059,-1.634719 1.214686,-0.61302 2.633714,-0.61302 2.20233,0 3.610004,1.339562 1.407675,1.328208 1.407675,3.224028 0,0.964939 -0.40868,1.79365 -0.397328,0.81736 -1.929877,2.270443 -1.203334,1.146574 -4.688465,4.109502 z M 49.870397,86.594472 v 2.554248 q 0,2.270444 -1.316857,4.347899 -1.305505,2.077455 -3.746231,2.077455 -1.407675,0 -2.383966,-0.613019 -0.964938,-0.624373 -1.839059,-2.281796 -0.862768,-1.668776 -0.862768,-3.530539 v -2.554248 q 0,-2.259091 1.305505,-4.336547 1.305505,-2.088807 3.746231,-2.088807 1.396323,0 2.361261,0.61302 0.97629,0.613019 1.850411,2.281795 0.885473,1.657423 0.885473,3.530539 z m -2.338557,0 q 0,-1.89582 -1.055756,-3.314847 -0.601667,-0.783303 -1.69148,-0.783303 -1.055756,0 -1.725537,0.862768 -1.010347,1.305505 -1.010347,3.235382 v 2.554248 q 0,1.907173 1.067108,3.314847 0.590316,0.783302 1.691481,0.783302 1.044403,0 1.714184,-0.862768 1.010347,-1.305505 1.010347,-3.235381 z m -11.601963,0 v 2.554248 q 0,2.270444 -1.316858,4.347899 -1.305505,2.077455 -3.746231,2.077455 -1.407674,0 -2.383964,-0.613019 -0.964939,-0.624373 -1.839059,-2.281796 -0.862769,-1.668776 -0.862769,-3.530539 v -2.554248 q 0,-2.259091 1.305505,-4.336547 1.305505,-2.088807 3.746231,-2.088807 1.396322,0 2.361261,0.61302 0.97629,0.613019 1.85041,2.281795 0.885474,1.657423 0.885474,3.530539 z m -2.338557,0 q 0,-1.89582 -1.055756,-3.314847 -0.601667,-0.783303 -1.69148,-0.783303 -1.055756,0 -1.725536,0.862768 -1.010347,1.305505 -1.010347,3.235382 v 2.554248 q 0,1.907173 1.067108,3.314847 0.590314,0.783302 1.691479,0.783302 1.044404,0 1.714185,-0.862768 1.010347,-1.305505 1.010347,-3.235381 z m -18.856029,6.311831 h 5.097145 q 0.420031,-0.340566 0.794654,-0.340566 0.533554,0 0.840065,0.351918 0.317861,0.351919 0.317861,1.203335 v 1.112518 H 11.182048 v -2.463431 q 6.289127,-5.187962 7.594631,-6.675103 0.658429,-0.760598 0.658429,-1.441731 0,-0.851417 -0.749247,-1.498492 -0.737893,-0.658429 -1.975285,-0.658429 -1.248743,0 -2.077455,0.726542 -0.431384,0.385976 -0.692485,1.146573 -0.158932,0.476794 -0.442736,0.681134 -0.272453,0.204339 -0.681133,0.204339 -0.476794,0 -0.828712,-0.340566 -0.340567,-0.340566 -0.340567,-0.794655 0,-0.681133 0.624372,-1.702832 0.635724,-1.0217 1.839059,-1.634719 1.214687,-0.61302 2.633714,-0.61302 2.20233,0 3.610004,1.339562 1.407675,1.328208 1.407675,3.224028 0,0.964939 -0.40868,1.79365 -0.397328,0.81736 -1.929877,2.270443 -1.203334,1.146574 -4.688464,4.109502 z" />
    </g>
  </g>
</svg>
